<svg width="48" height="48" viewBox="0 0 48 48" fill="none" xmlns="http://www.w3.org/2000/svg">
<path d="M18 18V16.4848C18 13.2715 20.6863 10.6667 24 10.6667C27.3137 10.6667 30 13.2715 30 16.4848V18" stroke="black" stroke-width="2"/>
<path d="M11.6047 32.8165C10.9296 31.0705 11.5753 28.8192 12.8668 24.3164L14.6667 18H33.3334L35.1332 24.3164C36.4247 28.8192 37.0704 31.0705 36.3954 32.8165C35.9819 33.8857 35.2478 34.8129 34.286 35.4805C30.6487 38.0057 17.1926 37.8955 13.714 35.4805C12.7523 34.8129 12.0182 33.8857 11.6047 32.8165Z" stroke="black" stroke-width="2"/>
<path d="M21.3334 22.6667H26.6667" stroke="black" stroke-width="2"/>
<rect x="28" width="20" height="20" rx="10" fill="#FFCD1E"/>
<path d="M39.1506 5.27273V14H37.8295V6.59375H37.7784L35.6903 7.95739V6.69602L37.8679 5.27273H39.1506Z" fill="black"/>
</svg>
